<?xml version="1.0" standalone="no"?>
<!DOCTYPE svg PUBLIC "-//W3C//DTD SVG 20010904//EN"
 "http://www.w3.org/TR/2001/REC-SVG-20010904/DTD/svg10.dtd">
<svg version="1.0" xmlns="http://www.w3.org/2000/svg"
 width="1200.000000pt" height="1200.000000pt" viewBox="0 0 1200.000000 1200.000000"
 preserveAspectRatio="xMidYMid meet">
<metadata>
Created by potrace 1.14, written by Peter Selinger 2001-2017
</metadata>
<g transform="translate(0.000000,1200.000000) scale(0.100000,-0.100000)"
fill="#000000" stroke="none">
<path d="M0 6000 l0 -6000 6000 0 6000 0 0 6000 0 6000 -6000 0 -6000 0 0
-6000z m5770 5575 c225 -50 312 -124 368 -309 22 -70 25 -103 27 -243 l2 -162
51 -40 c67 -53 140 -157 163 -233 34 -108 40 -186 27 -346 -15 -183 -14 -187
7 -242 9 -25 20 -76 22 -115 4 -54 14 -88 44 -150 53 -110 74 -221 66 -350
-12 -194 -56 -361 -117 -449 l-40 -57 21 -72 c17 -60 34 -244 39 -409 0 -12
17 -21 58 -33 326 -91 458 -265 526 -695 40 -249 66 -762 67 -1318 l1 -423 45
42 c63 58 103 74 269 105 13 2 35 30 64 81 24 43 68 116 98 161 l55 84 -21 36
c-48 86 -65 225 -42 341 16 83 13 157 -9 200 -30 58 -43 65 -94 53 -33 -9 -59
-8 -112 3 -85 18 -124 51 -132 112 -8 61 17 99 109 168 108 80 130 91 217 111
64 14 84 15 144 4 113 -20 217 -79 318 -179 110 -110 151 -182 190 -338 34
-137 43 -157 76 -172 64 -29 148 -9 344 84 206 98 283 120 419 119 168 -1 313
-52 458 -160 160 -120 252 -293 252 -472 0 -139 -44 -256 -127 -339 l-45 -46
11 -58 c10 -48 9 -69 -4 -121 -29 -111 -94 -191 -226 -276 -65 -42 -65 -43
-87 -118 -42 -143 -144 -247 -264 -269 -35 -7 -37 -9 -71 -107 -66 -186 -174
-332 -289 -393 -43 -22 -60 -39 -88 -88 -56 -95 -147 -153 -271 -172 -39 -6
-56 -17 -115 -74 -141 -137 -386 -317 -566 -415 -140 -76 -399 -177 -554 -216
l-41 -10 -7 -117 c-14 -229 -62 -408 -140 -518 -82 -115 -171 -165 -328 -185
-177 -22 -344 -40 -374 -40 -30 0 -32 -2 -38 -46 -3 -26 -6 -116 -6 -200 l0
-154 45 0 c63 0 103 -19 156 -76 42 -46 49 -49 95 -50 110 -1 176 -73 220
-239 33 -125 41 -140 102 -197 89 -84 204 -146 435 -239 54 -21 133 -57 177
-79 44 -22 90 -40 103 -40 60 0 374 -101 504 -162 114 -53 145 -99 194 -289
46 -182 34 -278 -47 -368 -133 -148 -344 -171 -1389 -152 -988 19 -1251 28
-1318 44 -51 13 -65 13 -110 0 -60 -16 -328 -25 -1317 -43 -638 -12 -646 -13
-716 -36 -39 -13 -92 -24 -118 -24 -55 0 -143 23 -201 53 -22 12 -77 29 -123
38 -108 23 -166 52 -227 114 -62 63 -79 111 -80 225 l0 85 -68 85 c-125 156
-196 314 -183 407 12 91 74 146 162 146 58 0 113 -30 241 -133 113 -90 133
-102 133 -76 0 60 201 620 455 1272 41 105 75 192 75 195 0 3 -24 30 -54 60
-58 60 -84 121 -107 249 -11 63 -13 66 -72 110 -144 108 -336 323 -391 440
-27 56 -31 76 -31 145 0 99 14 146 67 227 86 131 277 294 656 558 142 100 128
62 137 370 7 243 19 440 45 765 18 220 37 415 105 1095 28 284 56 593 85 940
37 441 74 590 172 690 72 75 146 98 341 107 l137 6 0 47 c0 74 19 160 51 230
l30 66 -40 43 c-86 93 -114 209 -115 471 -1 197 18 302 73 409 20 37 31 77 34
118 3 35 15 82 26 106 14 28 21 63 21 99 0 98 29 353 50 433 23 89 62 155 124
213 42 39 43 41 50 121 8 94 39 259 61 322 23 65 81 145 135 184 92 67 168 95
420 153 67 16 350 7 440 -13z"/>
<path d="M5300 11475 c-109 -18 -157 -33 -235 -70 -97 -47 -146 -92 -179 -165
-35 -78 -66 -247 -66 -362 0 -48 -4 -88 -9 -88 -5 0 -35 -23 -66 -52 -63 -58
-98 -117 -114 -198 -12 -65 -41 -363 -41 -432 0 -35 -6 -58 -22 -79 -18 -24
-23 -44 -24 -97 0 -53 -5 -76 -26 -112 -15 -25 -37 -74 -50 -110 -21 -61 -23
-80 -23 -285 0 -179 3 -230 17 -276 27 -86 75 -143 166 -195 2 -1 -21 -47 -50
-103 l-53 -102 0 -145 0 -144 -166 0 c-183 0 -267 -11 -318 -42 -63 -39 -117
-154 -141 -301 -5 -34 -26 -251 -45 -482 -20 -231 -51 -573 -70 -760 -107
-1041 -138 -1444 -161 -2060 l-7 -180 -147 -103 c-480 -335 -645 -488 -696
-642 -34 -104 6 -198 157 -369 86 -97 244 -237 298 -265 27 -14 28 -19 33
-101 9 -144 74 -247 171 -270 15 -4 27 -10 27 -14 0 -3 -22 -58 -49 -122 -44
-105 -192 -485 -308 -794 -70 -186 -197 -560 -224 -657 -21 -79 -26 -89 -53
-98 -26 -9 -36 -6 -85 26 -31 21 -90 65 -131 99 -159 131 -197 148 -241 104
-18 -18 -20 -28 -15 -63 15 -94 108 -249 213 -355 63 -62 63 -64 53 -100 -14
-51 -12 -146 4 -184 28 -68 128 -127 241 -142 28 -3 79 -21 114 -38 58 -28 75
-32 150 -32 70 0 94 4 129 23 40 21 54 22 250 22 300 -1 1367 19 1572 29 138
6 184 12 219 27 44 19 45 19 83 1 50 -25 229 -34 988 -47 1338 -23 1524 -12
1643 99 46 42 61 79 60 151 0 61 -6 85 -51 229 -26 84 -59 111 -208 166 -222
81 -303 106 -357 108 -38 2 -72 12 -122 39 -39 20 -142 66 -230 103 -250 105
-345 159 -443 249 -65 60 -79 84 -113 202 -36 127 -61 179 -90 195 -21 11 -85
8 -119 -4 -10 -4 -31 15 -64 58 -64 83 -81 90 -174 70 -41 -8 -78 -15 -83 -15
-8 0 -2 608 6 618 2 2 63 9 136 17 402 40 463 50 515 80 81 48 142 136 182
265 25 82 32 136 46 333 l11 159 111 28 c399 103 793 327 1079 614 l90 90 56
2 c112 5 213 75 241 167 10 34 19 42 75 67 120 55 212 178 279 375 43 126 48
135 80 135 47 0 130 40 171 82 54 57 75 101 82 172 l6 59 70 43 c99 61 188
144 215 201 29 62 25 157 -8 202 -28 39 -28 44 6 59 142 62 217 264 164 439
-51 166 -197 309 -390 381 -51 19 -92 26 -177 29 -141 6 -192 -7 -378 -96 -78
-38 -173 -79 -211 -90 -81 -25 -182 -27 -234 -5 -78 32 -99 68 -137 234 -34
146 -107 262 -218 346 -94 71 -158 98 -248 102 -92 5 -136 -11 -222 -82 -32
-26 -69 -52 -83 -58 -33 -15 -26 -30 22 -46 36 -13 55 -12 141 4 66 13 146
-69 180 -185 14 -50 14 -64 -3 -182 -15 -108 -16 -138 -6 -186 13 -65 43 -127
79 -165 l26 -27 -43 -48 c-23 -26 -67 -91 -98 -143 -30 -52 -74 -125 -98 -162
-41 -64 -45 -67 -91 -73 -89 -12 -168 -36 -205 -62 -45 -30 -93 -100 -110
-157 -14 -46 -17 -163 -5 -186 5 -11 -1 -19 -24 -29 -40 -17 -89 -94 -89 -138
0 -40 19 -79 52 -110 29 -27 105 -62 137 -63 18 0 22 -4 16 -17 -5 -10 -13
-43 -18 -73 -26 -150 75 -258 251 -268 60 -3 91 0 139 17 34 12 64 21 65 21 2
0 1 -22 0 -50 -5 -67 23 -147 65 -187 l33 -32 -107 -84 c-208 -163 -369 -254
-563 -317 -63 -21 -123 -42 -133 -45 -16 -7 -17 -2 -12 46 3 30 10 254 15 499
6 246 18 592 27 770 31 586 18 1525 -27 2000 -32 324 -92 501 -210 621 -66 67
-131 99 -283 141 l-115 31 -5 201 c-6 206 -13 258 -47 329 -28 57 -26 101 4
115 79 36 133 199 143 434 4 82 2 149 -7 190 -12 63 -49 148 -79 182 -12 13
-16 39 -16 100 -1 68 -5 89 -28 133 -25 49 -26 56 -17 120 5 37 12 122 16 188
11 202 -18 306 -117 410 -27 29 -69 63 -92 75 l-42 22 3 175 c3 139 0 189 -13
244 -40 164 -131 232 -342 258 -115 14 -308 12 -403 -4z m401 -169 c73 -13
131 -36 143 -55 3 -5 -14 -3 -39 5 -158 47 -533 36 -693 -20 -56 -20 -44 0 16
26 120 54 399 75 573 44z m-133 -143 c-21 -2 -55 -2 -75 0 -21 2 -4 4 37 4 41
0 58 -2 38 -4z m-185 -10 c-13 -2 -35 -2 -50 0 -16 2 -5 4 22 4 28 0 40 -2 28
-4z m305 0 c-10 -2 -26 -2 -35 0 -10 3 -2 5 17 5 19 0 27 -2 18 -5z m-415 -10
c-7 -2 -19 -2 -25 0 -7 3 -2 5 12 5 14 0 19 -2 13 -5z m339 -13 c59 -6 145
-21 193 -35 47 -14 91 -25 99 -25 20 0 29 -77 20 -192 -6 -95 -8 -99 -28 -94
-88 22 -198 30 -398 31 -196 0 -228 2 -228 15 0 45 24 270 30 280 4 7 41 15
81 20 108 11 114 11 231 0z m-368 -62 c-4 -24 -15 -92 -23 -153 l-16 -110 -45
-3 -46 -3 13 103 c19 156 29 186 67 197 56 17 58 15 50 -31z m-235 -94 c-6
-54 -14 -101 -17 -104 -5 -5 3 83 14 168 12 85 14 33 3 -64z m-22 -151 c-3
-10 -5 -4 -5 12 0 17 2 24 5 18 2 -7 2 -21 0 -30z m-3 -38 c3 -8 1 -15 -4 -15
-6 0 -10 7 -10 15 0 8 2 15 4 15 2 0 6 -7 10 -15z m93 9 c-3 -3 -12 -4 -19 -1
-8 3 -5 6 6 6 11 1 17 -2 13 -5z m-50 -10 c-3 -3 -12 -4 -19 -1 -8 3 -5 6 6 6
11 1 17 -2 13 -5z m573 -80 c6 -14 10 -136 10 -273 l0 -248 -197 -6 c-109 -4
-220 -11 -247 -17 -27 -5 -51 -8 -54 -5 -5 5 27 512 33 532 2 7 -9 14 -28 16
-29 4 -28 4 8 6 22 1 78 5 125 10 47 4 142 9 213 9 l127 2 10 -26z m167 -16
c42 -39 46 -76 39 -312 -4 -121 -8 -222 -10 -223 -1 -2 -22 3 -47 11 -24 8
-37 14 -28 15 19 1 29 74 29 220 0 112 -20 311 -32 311 -4 0 -8 -10 -8 -22 0
-27 -5 -21 -14 14 -6 27 -5 27 21 17 16 -6 38 -20 50 -31z m-762 -9 c-38 -10
-74 -17 -80 -15 -12 3 103 34 130 34 11 0 -11 -8 -50 -19z m105 -1 c0 -7 -7
-69 -15 -138 -8 -69 -17 -186 -20 -259 l-5 -135 -88 -18 c-48 -10 -92 -18 -97
-18 -19 0 14 370 41 460 14 46 18 51 86 84 75 38 98 44 98 24z m-210 -28 c-8
-5 -19 -10 -25 -10 -5 0 -3 5 5 10 8 5 20 10 25 10 6 0 3 -5 -5 -10z m817
-262 c-1 -51 -3 -12 -3 87 0 99 2 141 3 93 2 -48 2 -129 0 -180z m-877 239 c0
-2 -10 -12 -22 -23 l-23 -19 19 23 c18 21 26 27 26 19z m1288 -79 c34 -69 46
-168 39 -313 -4 -71 -10 -142 -14 -156 -8 -24 -10 -25 -39 -13 l-31 13 9 53
c6 29 10 137 11 239 1 163 -1 190 -17 213 -17 27 -17 27 2 17 11 -6 29 -30 40
-53z m-41 -205 c-3 -10 -5 -2 -5 17 0 19 2 27 5 18 2 -10 2 -26 0 -35z m-380
-100 c-3 -10 -5 -2 -5 17 0 19 2 27 5 18 2 -10 2 -26 0 -35z m370 -10 c-3 -10
-5 -2 -5 17 0 19 2 27 5 18 2 -10 2 -26 0 -35z m-388 -57 c-9 -8 -10 -7 -5 7
3 10 7 24 7 30 1 7 3 4 6 -7 3 -10 -1 -23 -8 -30z m378 -13 c-3 -10 -5 -4 -5
12 0 17 2 24 5 18 2 -7 2 -21 0 -30z m-5 -48 c3 -14 1 -25 -3 -25 -5 0 -9 11
-9 25 0 14 2 25 4 25 2 0 6 -11 8 -25z m-317 -20 c120 -19 276 -60 339 -90 79
-37 108 -73 114 -140 3 -43 1 -55 -10 -55 -8 0 -18 4 -24 9 -19 20 -152 80
-229 104 -157 49 -303 67 -550 68 -265 0 -496 -36 -664 -104 l-61 -25 0 38 c0
41 13 57 75 88 210 105 692 156 1010 107z m-964 -16 c-30 -10 -56 -17 -58 -15
-5 5 77 34 97 34 8 1 -9 -8 -39 -19z m709 -158 c0 -4 -46 -11 -102 -15 -56 -4
-128 -13 -160 -21 -32 -7 -58 -9 -58 -5 0 5 -3 15 -6 24 -5 12 5 16 48 19 111
7 278 7 278 -2z m-384 -132 c-4 -67 -12 -131 -17 -143 -6 -12 -26 -31 -45 -41
-67 -36 -81 -99 -94 -441 0 -7 -30 -24 -67 -39 -38 -15 -90 -42 -116 -61 l-48
-35 -32 19 c-38 22 -73 71 -87 121 -27 103 -40 431 -19 504 21 77 99 136 235
177 81 24 237 58 273 59 l24 1 -7 -121z m586 62 c1 -25 2 -60 3 -76 l2 -31
-71 19 c-83 21 -393 36 -381 18 3 -6 -1 -11 -9 -11 -9 0 -16 5 -16 10 0 6 -13
10 -30 10 -23 0 -30 5 -30 19 0 17 10 20 76 26 76 8 362 1 419 -10 l30 -5 -30
11 c-16 6 -117 13 -222 16 -187 5 -239 15 -150 28 84 13 224 23 315 23 l92 -1
2 -46z m178 24 c118 -32 260 -100 322 -154 74 -66 101 -131 106 -261 8 -192
-24 -335 -93 -415 l-34 -40 -28 26 c-47 42 -58 49 -145 84 l-83 34 -5 185 c-6
210 -11 224 -88 261 -33 16 -41 25 -42 46 0 15 -7 32 -15 39 -11 10 -15 35
-15 110 0 89 4 110 19 110 3 0 49 -11 101 -25z m-249 -186 c27 -6 59 -19 71
-29 23 -19 23 -19 -17 -9 -22 6 -130 13 -240 17 l-200 7 75 17 c81 18 219 17
311 -3z m59 -170 c47 -12 99 -30 116 -40 l31 -19 6 -142 c4 -78 6 -143 4 -144
-1 -1 -36 5 -77 14 -105 22 -528 22 -650 0 -47 -9 -86 -15 -87 -14 -1 1 1 20
4 43 5 38 8 41 47 49 47 10 53 24 55 129 2 87 8 101 52 120 87 40 345 41 499
4z m-12 -389 c184 -23 389 -95 438 -153 20 -24 33 -67 20 -67 -2 0 -42 18 -90
40 -183 85 -362 120 -610 120 -265 0 -460 -37 -663 -127 -21 -9 -15 13 12 46
50 58 195 109 385 135 126 17 394 20 508 6z m-335 -157 c-18 -2 -48 -2 -65 0
-18 2 -4 4 32 4 36 0 50 -2 33 -4z m265 0 c-15 -2 -42 -2 -60 0 -18 2 -6 4 27
4 33 0 48 -2 33 -4z m-408 -14 c-25 -4 -56 -7 -70 -7 -38 1 37 15 80 15 32 0
31 0 -10 -8z m488 4 c-10 -2 -26 -2 -35 0 -10 3 -2 5 17 5 19 0 27 -2 18 -5z
m72 -32 c218 -44 343 -93 398 -156 36 -40 42 -61 15 -50 -241 99 -457 132
-803 122 -214 -6 -320 -17 -464 -46 -47 -9 -86 -14 -86 -11 0 3 30 22 68 42
101 53 258 100 394 118 111 14 367 4 478 -19z m-7 22 c-7 -2 -21 -2 -30 0 -10
3 -4 5 12 5 17 0 24 -2 18 -5z m-678 -13 c-16 -4 -39 -8 -50 -8 -16 0 -15 2 5
8 14 4 36 8 50 8 22 0 22 -1 -5 -8z m722 4 c-3 -3 -12 -4 -19 -1 -8 3 -5 6 6
6 11 1 17 -2 13 -5z m40 -10 c-3 -3 -12 -4 -19 -1 -8 3 -5 6 6 6 11 1 17 -2
13 -5z m-840 -10 c-3 -3 -12 -4 -19 -1 -8 3 -5 6 6 6 11 1 17 -2 13 -5z m-232
-104 c-10 -11 -23 -20 -29 -20 -6 0 0 9 14 20 32 25 38 25 15 0z m783 -47
c-54 -2 -142 -2 -195 0 -54 1 -10 3 97 3 107 0 151 -2 98 -3z m-340 -10 c-16
-2 -40 -2 -55 0 -16 2 -3 4 27 4 30 0 43 -2 28 -4z m510 0 c-10 -2 -28 -2 -40
0 -13 2 -5 4 17 4 22 1 32 -1 23 -4z m-630 -10 c-10 -2 -26 -2 -35 0 -10 3 -2
5 17 5 19 0 27 -2 18 -5z m-81 -9 c-3 -3 -12 -4 -19 -1 -8 3 -5 6 6 6 11 1 17
-2 13 -5z m850 0 c-3 -3 -12 -4 -19 -1 -8 3 -5 6 6 6 11 1 17 -2 13 -5z m70
-36 c-3 -8 -6 -5 -6 6 -1 11 2 17 5 13 3 -3 4 -12 1 -19z m-225 6 l46 -6 7
-185 c4 -101 6 -186 4 -188 -3 -2 -78 7 -169 20 -91 12 -217 28 -280 34 -63 6
-139 14 -167 17 l-53 5 0 144 0 143 88 7 c48 3 98 7 112 9 50 6 368 6 412 0z
m-642 -164 c0 -118 -2 -140 -15 -140 -13 0 -15 22 -15 140 0 118 2 140 15 140
13 0 15 -22 15 -140z m881 45 c12 -163 10 -295 -3 -295 -22 1 -114 28 -96 29
14 1 17 19 22 119 4 64 9 145 12 180 6 61 6 63 32 60 26 -3 27 -5 33 -93z
m-1239 -52 c-2 -96 0 -128 10 -134 10 -7 9 -9 -4 -9 -16 0 -18 13 -18 135 0
74 3 135 8 135 4 0 6 -57 4 -127z m220 -2 l3 -129 -49 -6 c-28 -3 -51 -4 -52
-3 -1 1 -3 58 -5 126 l-4 125 25 7 c14 4 37 7 52 8 l27 1 3 -129z m925 -124
c-1 -45 -3 -5 -3 88 0 94 2 130 3 82 2 -48 2 -125 0 -170z m352 214 c8 -5 18
-33 22 -63 11 -76 11 -318 0 -318 -38 0 -39 6 -36 198 1 114 0 158 -5 112 l-6
-75 -2 78 c-2 77 1 84 27 68z m-1239 -365 c-22 -29 -54 -91 -71 -136 -62 -171
-81 -370 -99 -1035 -6 -214 -24 -743 -40 -1175 -45 -1196 -56 -1732 -42 -2135
6 -187 10 -341 8 -342 -2 -2 -25 14 -51 34 -27 20 -85 58 -129 83 -72 41 -82
50 -87 81 -7 45 -25 76 -46 83 -27 8 -250 44 -318 51 -54 6 -63 4 -87 -17 -22
-19 -28 -32 -28 -65 0 -36 -4 -43 -35 -62 l-35 -20 -45 31 -45 32 0 141 c0 78
-3 202 -6 276 l-6 134 198 140 c351 248 417 313 438 427 21 113 -82 225 -186
203 -78 -18 -207 -80 -315 -151 -65 -44 -121 -80 -125 -82 -4 -2 -5 48 -3 110
3 62 10 230 15 373 21 522 74 1406 105 1750 18 193 40 379 91 745 43 316 49
348 80 437 36 100 44 104 229 115 335 19 475 25 573 27 l103 1 -41 -54z m363
34 c364 -40 899 -130 1132 -190 111 -28 177 -63 228 -120 76 -84 114 -193 138
-392 16 -130 15 -841 -1 -884 -6 -16 -40 -72 -75 -124 -91 -133 -99 -174 -131
-620 -13 -170 -18 -370 -18 -720 -1 -546 -8 -486 85 -785 23 -71 55 -177 73
-235 l33 -105 -8 -195 c-17 -425 -44 -664 -84 -746 -19 -39 -36 -57 -72 -77
-120 -65 -356 -99 -848 -122 -181 -9 -449 -22 -595 -30 -208 -11 -266 -12
-272 -2 -4 6 -5 39 -2 72 11 106 -20 219 -82 301 -22 30 -23 43 -33 284 -18
415 -15 529 13 613 13 40 36 111 51 159 18 56 63 152 130 273 57 103 114 219
127 258 l23 72 -2 735 c-1 404 -4 788 -8 853 l-6 117 28 -1 c15 -1 52 5 82 14
30 10 55 17 56 17 1 0 -12 -39 -28 -87 -35 -105 -47 -241 -27 -324 28 -119
102 -225 191 -274 49 -27 63 -30 146 -30 51 0 93 -1 93 -2 0 -1 -37 -22 -82
-47 -90 -50 -82 -59 24 -26 81 25 129 70 174 165 57 119 77 211 78 365 1 121
-1 140 -22 185 -13 28 -19 51 -13 53 30 10 77 51 85 75 15 41 -13 90 -66 116
-181 87 -479 28 -642 -129 -35 -33 -67 -60 -72 -60 -6 0 -15 21 -22 46 -7 27
-34 74 -66 114 -29 38 -79 112 -111 165 l-58 97 7 237 c17 603 51 799 161 930
33 38 42 38 288 11z m2437 -1090 c86 -44 182 -140 220 -222 16 -35 39 -109 51
-166 27 -126 64 -194 132 -239 125 -84 293 -66 541 58 163 82 246 109 338 109
150 0 284 -56 393 -165 114 -114 153 -228 121 -355 -30 -116 -99 -172 -249
-204 -161 -35 -231 -88 -257 -197 -15 -60 -8 -117 25 -230 51 -168 22 -273
-90 -332 -34 -18 -57 -21 -155 -21 -130 0 -249 25 -360 76 l-65 30 53 18 c111
39 182 117 182 200 0 25 -14 88 -31 140 -18 56 -32 127 -35 175 -5 74 -4 84
23 134 36 69 69 87 191 101 111 12 149 27 185 69 92 110 -72 277 -253 258 -32
-4 -130 -30 -217 -58 -155 -51 -160 -52 -283 -53 -107 -1 -136 3 -200 23 -102
34 -187 93 -227 160 -41 69 -49 122 -33 240 18 136 11 223 -25 294 -37 74
-119 153 -169 163 -21 3 -34 10 -29 14 32 31 143 21 223 -20z m-2879 -302 c-3
-114 -11 -112 -11 2 0 51 3 90 6 87 4 -3 6 -43 5 -89z m38 -8 c11 -24 11 -24
-3 -6 -9 11 -16 24 -16 30 0 12 5 7 19 -24z m64 -96 c20 -29 37 -55 37 -59 0
-9 -45 51 -75 100 -26 42 -5 20 38 -41z m-116 -256 c-1 -40 -3 -8 -3 72 0 80
2 112 3 73 2 -40 2 -106 0 -145z m768 186 c77 -19 100 -35 125 -85 21 -41 49
-203 37 -215 -3 -4 -23 0 -44 9 -66 26 -224 40 -304 27 -94 -16 -103 -35 -13
-27 68 5 287 -17 331 -34 15 -6 23 -17 23 -33 l0 -24 -52 14 c-121 32 -282 26
-402 -14 -66 -22 -66 -22 -66 82 0 124 57 291 103 301 79 17 195 17 262 -1z
m1182 -571 c-1 -76 -3 -14 -3 137 0 151 2 213 3 138 2 -76 2 -200 0 -275z
m-55 307 c-9 -21 -18 -35 -20 -30 -3 9 25 70 33 70 2 0 -4 -18 -13 -40z
m-1905 -217 c-2 -37 -3 -9 -3 62 0 72 1 102 3 68 2 -34 2 -93 0 -130z m1874
91 c-6 -38 -12 -82 -15 -99 -2 -16 -2 2 0 40 4 73 14 138 21 132 2 -2 -1 -35
-6 -73z m2109 4 c80 -42 101 -101 44 -127 -14 -6 -68 -16 -120 -21 -115 -12
-181 -42 -224 -102 -70 -96 -77 -232 -21 -408 35 -110 37 -131 14 -171 -21
-35 -29 -36 -38 -6 -19 60 -87 117 -141 117 -21 0 -25 3 -19 18 14 35 44 181
64 313 33 214 78 330 139 356 127 55 233 66 302 31z m-3137 -15 c42 -4 63 -9
55 -14 -20 -13 -118 -9 -163 6 l-40 13 40 1 c22 0 71 -2 108 -6z m-273 -25 c0
-38 36 -84 82 -107 52 -25 124 -27 193 -6 27 8 50 13 52 12 1 -2 -7 -29 -19
-61 -19 -51 -27 -61 -62 -77 -84 -38 -197 -19 -274 46 -53 45 -125 165 -109
182 6 6 101 31 125 32 6 1 12 -9 12 -21z m2589 -32 c29 -8 77 -18 107 -22 51
-6 53 -7 72 -53 28 -65 39 -113 52 -221 5 -52 19 -151 29 -220 10 -69 18 -126
17 -127 -10 -11 -256 -6 -256 5 0 5 11 15 25 22 23 12 95 105 95 123 0 4 -30
-17 -67 -48 -37 -30 -68 -53 -70 -51 -2 2 1 16 8 32 15 40 23 202 12 244 -5
19 -16 36 -25 38 -12 2 -17 -12 -22 -75 -14 -151 -40 -222 -112 -302 -64 -71
-123 -94 -257 -99 -115 -5 -280 11 -322 30 -89 41 -23 245 90 277 61 17 50 18
253 -42 45 -14 82 -21 82 -17 0 5 -22 28 -50 53 l-49 44 44 47 c26 29 72 103
115 186 73 142 126 207 159 197 9 -3 40 -12 70 -21z m-1312 -158 c-2 -18 -4
-6 -4 27 0 33 2 48 4 33 2 -15 2 -42 0 -60z m-1860 -130 c-2 -35 -3 -7 -3 62
0 69 1 97 3 63 2 -35 2 -91 0 -125z m1850 -20 c-2 -18 -4 -4 -4 32 0 36 2 50
4 33 2 -18 2 -48 0 -65z m-1860 -255 c-2 -37 -3 -9 -3 62 0 72 1 102 3 68 2
-34 2 -93 0 -130z m1850 95 c-2 -18 -4 -4 -4 32 0 36 2 50 4 33 2 -18 2 -48 0
-65z m2593 70 c41 -15 70 -49 70 -81 0 -34 -51 -89 -134 -146 l-46 -32 -11 28
c-14 38 -29 120 -25 135 3 7 7 26 11 41 3 16 17 40 32 53 26 24 41 25 103 2z
m-2473 -545 c-1 -104 -2 -19 -2 187 0 206 1 291 2 188 2 -104 2 -272 0 -375z
m-130 200 c-2 -32 -3 -8 -3 52 0 61 1 87 3 58 2 -29 2 -78 0 -110z m-1850
-110 c-2 -37 -3 -9 -3 62 0 72 1 102 3 68 2 -34 2 -93 0 -130z m3299 102 c-11
-8 -25 -15 -31 -15 -17 0 -53 -42 -60 -70 -3 -14 -2 -44 3 -65 6 -27 5 -49 -3
-69 -8 -20 -10 -40 -4 -60 5 -16 7 -31 6 -33 -2 -1 -19 6 -38 17 -87 48 -129
64 -213 76 -50 8 -104 14 -121 15 -27 0 -24 3 20 18 100 36 268 133 309 179
16 18 30 22 85 22 60 -1 64 -2 47 -15z m-202 -29 c-79 -54 -223 -123 -290
-140 -41 -11 -105 -16 -190 -16 l-129 0 64 35 c35 19 72 42 82 51 14 12 29 15
59 11 22 -3 86 -1 142 4 82 7 113 14 167 41 77 38 99 46 126 47 13 1 2 -11
-31 -33z m-554 -47 c30 -6 57 -12 59 -14 5 -6 -110 -62 -156 -75 -76 -23 -132
14 -99 65 16 25 85 47 121 39 11 -3 45 -9 75 -15z m-2553 -311 c-2 -35 -3 -7
-3 62 0 69 1 97 3 63 2 -35 2 -91 0 -125z m3033 102 c36 -12 80 -33 98 -47 18
-13 49 -27 70 -30 20 -3 48 -16 62 -28 26 -23 106 -38 211 -38 63 0 121 34
165 98 l35 52 106 -33 c58 -19 114 -34 125 -34 24 0 23 -22 -7 -116 -62 -191
-195 -295 -359 -281 -62 5 -137 33 -190 70 -33 23 -65 88 -66 131 0 38 -9 28
-21 -23 -5 -25 -5 -50 1 -66 5 -14 7 -25 3 -25 -4 0 -40 25 -80 56 -63 49
-133 127 -133 149 0 4 32 4 71 0 70 -7 71 -7 67 16 -2 17 -17 31 -48 47 -39
20 -55 23 -121 19 -86 -6 -125 -23 -206 -92 -77 -65 -133 -76 -216 -43 -56 22
-74 105 -36 168 51 86 43 83 234 77 141 -4 181 -8 235 -27z m-3043 -417 c-2
-38 -3 -7 -3 67 0 74 1 105 3 68 2 -38 2 -98 0 -135z m1990 85 c-3 -8 -6 -5
-6 6 -1 11 2 17 5 13 3 -3 4 -12 1 -19z m1109 -9 c29 -32 146 -115 179 -127
17 -6 75 -26 130 -46 55 -20 113 -36 129 -36 27 0 28 -2 22 -32 -20 -101 -165
-121 -339 -48 -200 84 -291 234 -179 294 35 20 36 20 58 -5z m-1109 -221 c-1
-40 -3 -8 -3 72 0 80 2 112 3 73 2 -40 2 -106 0 -145z m-1832 92 c-25 -49 -47
-90 -50 -90 -3 0 15 41 40 90 25 50 47 90 50 90 3 0 -15 -40 -40 -90z m1712 3
c-3 -10 -5 -4 -5 12 0 17 2 24 5 18 2 -7 2 -21 0 -30z m10 -65 c-3 -7 -5 -2
-5 12 0 14 2 19 5 13 2 -7 2 -19 0 -25z m10 -40 c-3 -8 -6 -5 -6 6 -1 11 2 17
5 13 3 -3 4 -12 1 -19z m10 -40 c-3 -8 -6 -5 -6 6 -1 11 2 17 5 13 3 -3 4 -12
1 -19z m-1899 -139 c1 8 4 12 7 10 2 -3 -2 -23 -10 -44 -14 -39 -14 -37 -13
65 l2 105 6 -75 c4 -41 7 -69 8 -61z m1921 71 c0 -9 -4 -8 -9 5 -5 11 -9 27
-9 35 0 9 4 8 9 -5 5 -11 9 -27 9 -35z m40 -130 c0 -9 -4 -8 -9 5 -5 11 -9 27
-9 35 0 9 4 8 9 -5 5 -11 9 -27 9 -35z m20 -27 c-1 -60 -3 -70 -9 -45 -7 30
-2 122 6 122 2 0 4 -35 3 -77z m-3169 -512 l0 -199 -29 -12 c-28 -11 -34 -9
-93 36 -88 66 -128 105 -128 125 0 23 71 101 165 181 44 37 81 68 83 68 1 0 2
-89 2 -199z m430 -197 c0 -19 -5 -25 -17 -22 -24 4 -28 35 -6 41 10 3 19 5 21
6 1 0 2 -11 2 -25z m-258 -162 c3 -4 -24 -32 -60 -62 -81 -67 -164 -175 -194
-250 -14 -35 -23 -85 -26 -137 -2 -46 -8 -83 -12 -83 -4 0 -24 18 -43 39 -57
64 -71 142 -41 242 41 136 126 233 229 260 33 9 136 2 147 -9z m587 -61 c52
-18 121 -46 154 -63 68 -36 151 -117 186 -178 22 -39 22 -43 5 -35 -10 4 -50
10 -89 12 -63 4 -76 2 -129 -26 -54 -29 -66 -31 -160 -31 -104 0 -178 -13
-287 -51 -35 -12 -86 -28 -114 -35 -48 -13 -47 -13 55 -9 60 2 127 11 155 21
31 10 98 18 180 21 118 5 136 8 189 34 33 16 75 29 95 29 51 0 114 -19 129
-38 30 -39 2 -229 -46 -316 -24 -43 -39 -56 -93 -83 -35 -17 -67 -29 -70 -27
-4 2 -4 69 -2 148 6 139 5 144 -15 155 -32 17 -48 -16 -78 -154 -13 -64 -29
-125 -34 -135 -13 -25 -82 -50 -139 -50 l-48 0 -6 120 c-5 126 -21 175 -52
164 -18 -7 -29 -50 -45 -166 -11 -78 -15 -91 -41 -113 -37 -31 -80 -39 -177
-33 -129 8 -212 65 -212 147 0 17 5 18 40 14 46 -6 70 8 70 43 0 17 -17 35
-69 71 -92 63 -115 103 -109 188 7 81 52 167 128 245 133 134 227 172 420 166
98 -2 129 -7 209 -35z m1270 -823 c-1 -90 -4 -246 -8 -348 l-6 -184 -41 -12
c-96 -28 -109 -49 -118 -194 -6 -94 -9 -107 -31 -125 -27 -23 -45 -64 -45
-105 0 -16 -11 -45 -23 -64 l-24 -34 -26 34 c-15 18 -27 46 -27 62 0 45 -19
89 -46 107 -22 14 -24 22 -24 84 0 93 -16 171 -41 197 -11 12 -41 27 -67 34
-26 7 -50 16 -53 19 -4 3 -10 151 -14 328 l-7 321 74 6 c314 25 430 33 476 35
l52 1 -1 -162z m-2140 -189 c-144 -381 -328 -1007 -363 -1236 -11 -71 -102
-409 -121 -448 -3 -5 -3 55 -1 135 5 182 18 234 170 696 63 192 131 403 151
469 46 149 174 509 192 538 3 5 10 3 14 -5 6 -10 -9 -61 -42 -149z m66 -2
c-18 -51 -53 -146 -78 -212 -24 -66 -84 -238 -132 -383 -48 -145 -89 -261 -91
-259 -5 4 52 189 208 684 86 271 94 291 110 277 15 -15 14 -22 -17 -107z
m1047 97 l58 6 0 -170 c0 -99 -4 -170 -9 -170 -5 0 -42 7 -82 15 -40 9 -80 13
-89 10 -19 -6 -95 -84 -120 -123 -13 -21 -18 -22 -43 -13 -46 18 -95 13 -118
-10 -27 -27 -46 -73 -75 -182 -13 -48 -30 -100 -38 -115 -17 -32 -101 -113
-172 -164 -57 -42 -241 -134 -250 -125 -5 5 231 847 256 911 7 18 19 27 47 31
61 11 130 35 156 55 23 19 26 19 58 3 60 -30 180 -9 263 46 26 18 31 18 65 4
25 -11 53 -14 93 -9z m-795 -107 c4 -4 -321 -1145 -328 -1152 -2 -1 -23 -6
-45 -10 l-42 -6 84 263 c101 316 183 589 217 718 36 137 39 152 28 146 -5 -3
-4 8 2 25 11 28 15 30 47 24 19 -4 36 -8 37 -8z m-299 -711 c-124 -379 -156
-466 -170 -466 -10 0 -18 2 -18 4 0 24 332 937 338 931 2 -2 -66 -213 -150
-469z m997 207 c214 -70 613 -210 643 -225 22 -11 31 -38 13 -38 -6 0 -25 9
-43 19 -18 11 -132 52 -253 91 -298 98 -585 202 -585 212 0 12 34 3 225 -59z
m1875 59 c0 -11 -178 -76 -509 -187 -154 -51 -301 -103 -326 -116 -24 -12 -48
-19 -52 -15 -14 13 34 43 109 69 758 261 778 268 778 249z m-3203 -664 c-3 -8
-6 -5 -6 6 -1 11 2 17 5 13 3 -3 4 -12 1 -19z m308 -138 c4 -6 1 -27 -5 -48
-27 -82 -123 -338 -132 -347 -14 -15 -56 39 -64 83 -10 50 18 152 59 221 45
74 122 124 142 91z m4048 -21 c118 -23 238 -57 251 -70 12 -11 -8 -12 -219
-14 -152 -1 -165 -3 -258 -34 -94 -31 -100 -32 -118 -15 -11 10 -19 30 -19 50
0 27 7 37 37 56 86 54 163 60 326 27z m-3958 -52 c69 -119 -14 -302 -146 -323
l-37 -6 29 58 c15 33 47 116 71 187 24 70 46 127 50 127 4 0 19 -20 33 -43z
m1691 -192 c10 -53 1 -192 -14 -207 -7 -7 -44 -14 -82 -16 l-70 -4 0 111 0
111 28 6 c15 3 47 12 72 19 25 7 48 13 52 14 4 1 10 -15 14 -34z m201 17 c21
-6 50 -13 66 -16 l27 -6 0 -111 0 -111 -70 4 c-38 2 -75 9 -82 16 -15 15 -24
154 -13 208 4 25 10 34 20 30 8 -3 31 -9 52 -14z m-395 -117 c1 -52 2 -103 2
-112 1 -13 -8 -19 -31 -21 l-33 -3 0 64 c0 35 -3 85 -6 110 -7 48 -5 49 54 56
9 1 12 -25 14 -94z m586 80 c2 -2 0 -51 -4 -110 l-7 -106 -31 3 c-17 2 -31 9
-30 16 1 6 2 57 3 113 l1 101 33 -7 c17 -4 33 -9 35 -10z m-676 -101 c2 -58 0
-108 -4 -110 -16 -10 -519 -25 -1038 -31 -510 -6 -564 -5 -552 9 7 9 29 19 50
23 61 11 119 41 169 88 l48 45 325 16 c545 28 817 46 987 65 8 1 13 -31 15
-105z m898 86 c352 -27 1104 -61 1455 -67 402 -6 536 1 596 33 l28 14 6 -44
c13 -84 -29 -113 -205 -141 -192 -31 -1551 -30 -1992 2 l-88 6 0 109 0 109 33
-5 c17 -3 93 -10 167 -16z m-3100 -50 c12 0 20 -7 20 -18 0 -10 6 -41 14 -70
l13 -53 -31 7 c-81 17 -111 54 -100 124 l6 39 29 -14 c15 -8 37 -15 49 -15z
m428 -96 c2 -1 -5 -29 -15 -63 -15 -50 -22 -61 -39 -61 -29 0 -37 35 -24 97
17 79 17 79 48 52 15 -13 28 -25 30 -25z m58 -35 c3 -6 -5 -22 -19 -36 l-25
-25 12 36 c11 37 20 44 32 25z"/>
<path d="M5608 9293 c12 -2 32 -2 45 0 12 2 2 4 -23 4 -25 0 -35 -2 -22 -4z"/>
<path d="M5708 9293 c18 -2 45 -2 60 0 15 2 0 4 -33 4 -33 0 -45 -2 -27 -4z"/>
<path d="M4271 7983 c-193 -100 -248 -427 -102 -603 71 -87 198 -117 294 -71
163 79 250 339 177 533 -44 118 -115 167 -240 168 -63 0 -85 -5 -129 -27z
m116 -28 c30 -8 99 -89 113 -132 7 -19 10 -35 8 -37 -1 -1 -36 -22 -77 -45
-40 -24 -121 -79 -178 -122 -98 -74 -129 -92 -121 -70 2 5 57 50 123 100 142
107 194 150 180 151 -13 0 -194 -119 -252 -166 -23 -19 -45 -34 -48 -34 -4 0
-6 33 -3 73 5 83 37 162 87 219 34 39 107 80 131 74 8 -3 25 -7 37 -11z m148
-38 c131 -130 83 -469 -77 -553 -44 -23 -44 -16 -2 20 77 66 133 212 119 313
-11 79 -45 171 -81 219 -45 59 -18 60 41 1z m-7 -269 c-5 -111 -31 -170 -101
-235 -78 -72 -158 -71 -227 3 -23 25 -40 51 -38 59 3 14 343 262 362 264 4 1
6 -41 4 -91z"/>
<path d="M4265 6794 c-111 -22 -124 -27 -152 -54 -17 -17 -33 -43 -36 -58 -3
-15 -10 -45 -16 -68 -28 -111 -61 -676 -61 -1058 0 -368 10 -439 66 -465 40
-18 190 -33 291 -29 111 3 169 25 191 70 8 18 16 115 22 290 10 260 22 487 40
748 5 74 12 225 16 335 8 287 2 294 -221 293 -66 0 -129 -2 -140 -4z m289 -74
c16 -16 12 -307 -8 -640 -33 -541 -36 -611 -36 -749 0 -77 -4 -151 -10 -165
-12 -33 -61 -46 -177 -46 -124 0 -140 13 -155 125 -11 89 -3 572 13 800 47
660 50 674 134 688 49 9 228 -2 239 -13z m-344 -9 c0 -6 -4 -12 -10 -16 -19
-12 -30 -84 -57 -355 -24 -250 -27 -315 -27 -710 -1 -345 2 -440 12 -458 17
-29 11 -36 -21 -28 -16 4 -27 16 -32 33 -13 53 -17 559 -6 768 12 221 47 678
56 732 4 23 12 33 28 36 40 8 57 7 57 -2z"/>
<path d="M4173 4401 c-26 -12 -52 -35 -70 -62 -24 -36 -28 -53 -28 -110 0 -76
16 -106 76 -147 92 -64 219 27 219 155 -1 127 -98 209 -197 164z m102 -43 c55
-43 71 -136 35 -195 -25 -41 -36 -43 -15 -3 31 61 12 157 -40 198 -15 12 -23
22 -18 22 6 0 23 -10 38 -22z m-45 -23 c12 -15 6 -35 -11 -35 -6 0 -7 5 -4 10
13 20 -12 9 -36 -16 -13 -14 -37 -35 -52 -46 l-28 -20 7 29 c4 15 15 43 26 61
16 26 26 32 53 32 18 0 38 -7 45 -15z m-59 -83 c-34 -44 -61 -68 -61 -56 0 8
80 94 88 94 2 0 -10 -17 -27 -38z m99 -62 c-18 -66 -81 -100 -121 -64 -17 16
-15 20 49 90 l67 73 8 -30 c4 -16 3 -46 -3 -69z"/>
<path d="M6014 6841 c-75 -35 -95 -95 -49 -150 14 -16 42 -35 61 -41 l36 -12
-21 -22 c-37 -39 -80 -148 -92 -231 -28 -199 34 -457 134 -562 29 -31 115 -69
138 -61 5 2 -16 20 -48 41 -32 21 -66 49 -76 63 -18 25 -17 24 37 -6 199 -112
396 70 396 365 0 93 -16 176 -50 252 -10 24 -15 43 -11 43 4 0 26 -16 48 -35
39 -33 63 -44 63 -27 -2 35 -189 248 -274 311 -110 81 -217 108 -292 72z m258
-223 c48 -14 111 -81 144 -153 27 -59 54 -170 54 -227 l0 -38 -47 49 c-52 53
-104 74 -213 85 -54 5 -53 5 40 -27 116 -40 141 -56 180 -115 43 -65 38 -80
-13 -39 -88 73 -213 117 -336 117 l-64 0 5 78 c7 100 38 182 92 238 47 49 80
55 158 32z m-124 -415 c26 -4 31 -9 27 -23 -8 -25 20 -88 53 -124 36 -38 81
-56 142 -56 l51 0 -21 -31 c-29 -40 -88 -78 -133 -86 -80 -13 -186 53 -221
138 -9 20 -18 74 -22 119 l-7 83 49 -7 c27 -4 64 -10 82 -13z m219 -89 c-8 -8
-71 21 -87 41 -11 13 -2 11 39 -9 29 -15 51 -30 48 -32z"/>
<path d="M5251 5673 c-140 -73 -90 -363 82 -476 120 -79 249 -112 432 -110
153 1 248 22 355 79 77 40 197 149 225 204 17 33 15 32 -44 -23 -67 -62 -134
-102 -157 -93 -30 11 -13 106 32 178 20 31 35 40 103 63 77 25 161 75 161 95
0 14 -4 13 -84 -14 -103 -36 -250 -49 -383 -36 -141 14 -245 38 -422 95 -172
55 -250 65 -300 38z m283 -107 c89 -30 196 -61 238 -70 94 -19 268 -34 326
-28 l43 4 -25 -36 c-14 -21 -30 -51 -35 -69 l-11 -32 -92 3 c-160 4 -389 23
-465 37 -128 25 -199 70 -244 157 -23 45 -23 52 -3 72 29 29 98 19 268 -38z
m-207 -182 c81 -62 219 -86 498 -88 105 0 202 2 216 6 25 7 27 5 31 -25 3 -17
8 -40 12 -49 18 -41 -249 -85 -412 -68 -149 16 -278 66 -348 136 -40 41 -84
125 -84 163 0 22 1 22 23 -10 12 -18 41 -48 64 -65z"/>
<path d="M9257 6482 c-28 -31 -37 -72 -31 -140 6 -72 20 -102 59 -128 34 -22
71 -11 95 29 36 59 22 185 -27 239 -21 23 -75 23 -96 0z m80 -54 c25 -49 24
-155 -2 -174 -17 -13 -22 -12 -45 11 -22 23 -25 33 -23 96 3 100 35 131 70 67z"/>
<path d="M5315 2684 c-82 -7 -153 -13 -157 -13 -10 -1 -10 -230 -2 -374 7
-100 8 -106 31 -112 38 -9 101 -79 114 -127 7 -24 15 -79 18 -123 5 -65 9 -80
24 -83 15 -3 17 5 17 60 0 130 46 230 122 267 l44 21 2 162 c1 90 5 202 8 251
l7 87 -39 -1 c-22 -1 -106 -8 -189 -15z"/>
<path d="M4450 2440 c-61 -33 -174 -54 -233 -42 -39 8 -58 7 -81 -4 -17 -7
-50 -18 -73 -24 -23 -6 -44 -14 -47 -18 -10 -17 -187 -644 -183 -648 10 -10
155 117 170 149 9 18 26 71 38 118 40 154 87 219 176 245 29 9 61 13 72 9 14
-4 34 10 77 53 60 59 88 72 160 72 34 0 34 0 34 49 0 46 -1 49 -31 55 -41 8
-38 8 -79 -14z"/>
<path d="M7066 5087 c-12 -146 -19 -747 -9 -747 20 0 154 59 238 105 76 42
194 122 270 182 l27 23 -18 61 -19 61 -42 -6 c-77 -10 -227 26 -296 72 -73 49
-127 160 -127 263 0 76 -17 66 -24 -14z"/>
</g>
</svg>
