<svg xmlns="http://www.w3.org/2000/svg" viewBox="0 0 1920 1080"><g transform="
          rotate(0 960 540) 
          translate(-0 -0)
          scale(1)
        "><rect width="1920" height="1080" fill="rgb(192, 229, 254)"></rect><g transform="translate(0, 0)"><path fill="rgb(160, 212, 254)" fill-opacity="1" d="M0,22.295L22.857,41.396C45.714,60.498,91.429,98.701,137.143,110.384C182.857,122.067,228.571,107.229,274.286,109.477C320,111.725,365.714,131.057,411.429,123.441C457.143,115.824,502.857,81.258,548.571,79.331C594.286,77.405,640,108.118,685.714,106.383C731.429,104.647,777.143,70.463,822.857,49.845C868.571,29.228,914.286,22.178,960,44.81C1005.714,67.442,1051.429,119.757,1097.143,121.979C1142.857,124.202,1188.571,76.331,1234.286,64.697C1280,53.063,1325.714,77.664,1371.429,80.326C1417.143,82.988,1462.857,63.71,1508.571,72.025C1554.286,80.341,1600,116.251,1645.714,117.457C1691.429,118.664,1737.143,85.168,1782.857,69.445C1828.571,53.723,1874.286,55.775,1897.143,56.8L1920,57.826L1920,1080L1897.143,1080C1874.286,1080,1828.571,1080,1782.857,1080C1737.143,1080,1691.429,1080,1645.714,1080C1600,1080,1554.286,1080,1508.571,1080C1462.857,1080,1417.143,1080,1371.429,1080C1325.714,1080,1280,1080,1234.286,1080C1188.571,1080,1142.857,1080,1097.143,1080C1051.429,1080,1005.714,1080,960,1080C914.286,1080,868.571,1080,822.857,1080C777.143,1080,731.429,1080,685.714,1080C640,1080,594.286,1080,548.571,1080C502.857,1080,457.143,1080,411.429,1080C365.714,1080,320,1080,274.286,1080C228.571,1080,182.857,1080,137.143,1080C91.429,1080,45.714,1080,22.857,1080L0,1080Z"></path></g><g transform="translate(0, 180)"><path fill="rgb(128, 195, 254)" fill-opacity="1" d="M0,63.201L22.857,80.619C45.714,98.037,91.429,132.873,137.143,140.973C182.857,149.074,228.571,130.44,274.286,111.364C320,92.288,365.714,72.772,411.429,79.721C457.143,86.67,502.857,120.085,548.571,139.263C594.286,158.442,640,163.384,685.714,147.429C731.429,131.474,777.143,94.621,822.857,71.888C868.571,49.156,914.286,40.544,960,50.263C1005.714,59.981,1051.429,88.029,1097.143,92.842C1142.857,97.654,1188.571,79.23,1234.286,83.102C1280,86.974,1325.714,113.142,1371.429,115.742C1417.143,118.342,1462.857,97.374,1508.571,92.22C1554.286,87.065,1600,97.725,1645.714,89.542C1691.429,81.358,1737.143,54.33,1782.857,40.379C1828.571,26.428,1874.286,25.553,1897.143,25.115L1920,24.677L1920,900L1897.143,900C1874.286,900,1828.571,900,1782.857,900C1737.143,900,1691.429,900,1645.714,900C1600,900,1554.286,900,1508.571,900C1462.857,900,1417.143,900,1371.429,900C1325.714,900,1280,900,1234.286,900C1188.571,900,1142.857,900,1097.143,900C1051.429,900,1005.714,900,960,900C914.286,900,868.571,900,822.857,900C777.143,900,731.429,900,685.714,900C640,900,594.286,900,548.571,900C502.857,900,457.143,900,411.429,900C365.714,900,320,900,274.286,900C228.571,900,182.857,900,137.143,900C91.429,900,45.714,900,22.857,900L0,900Z"></path></g><g transform="translate(0, 360)"><path fill="rgb(96, 178, 254)" fill-opacity="1" d="M0,122.81L22.857,128.372C45.714,133.934,91.429,145.058,137.143,128.452C182.857,111.847,228.571,67.512,274.286,49.218C320,30.924,365.714,38.672,411.429,54.211C457.143,69.75,502.857,93.081,548.571,88.847C594.286,84.612,640,52.812,685.714,38.909C731.429,25.006,777.143,29,822.857,35.678C868.571,42.356,914.286,51.718,960,55.798C1005.714,59.879,1051.429,58.677,1097.143,56.562C1142.857,54.446,1188.571,51.417,1234.286,64.888C1280,78.359,1325.714,108.33,1371.429,122.218C1417.143,136.106,1462.857,133.909,1508.571,137.424C1554.286,140.938,1600,150.162,1645.714,144.181C1691.429,138.2,1737.143,117.014,1782.857,92.601C1828.571,68.187,1874.286,40.546,1897.143,26.725L1920,12.905L1920,720L1897.143,720C1874.286,720,1828.571,720,1782.857,720C1737.143,720,1691.429,720,1645.714,720C1600,720,1554.286,720,1508.571,720C1462.857,720,1417.143,720,1371.429,720C1325.714,720,1280,720,1234.286,720C1188.571,720,1142.857,720,1097.143,720C1051.429,720,1005.714,720,960,720C914.286,720,868.571,720,822.857,720C777.143,720,731.429,720,685.714,720C640,720,594.286,720,548.571,720C502.857,720,457.143,720,411.429,720C365.714,720,320,720,274.286,720C228.571,720,182.857,720,137.143,720C91.429,720,45.714,720,22.857,720L0,720Z"></path></g><g transform="translate(0, 540)"><path fill="rgb(64, 161, 254)" fill-opacity="1" d="M0,18.091L22.857,25.136C45.714,32.182,91.429,46.272,137.143,65.952C182.857,85.631,228.571,110.9,274.286,125.669C320,140.438,365.714,144.707,411.429,139.72C457.143,134.733,502.857,120.49,548.571,100.362C594.286,80.233,640,54.218,685.714,44.839C731.429,35.46,777.143,42.716,822.857,54.088C868.571,65.461,914.286,80.948,960,102.018C1005.714,123.089,1051.429,149.742,1097.143,157.394C1142.857,165.046,1188.571,153.697,1234.286,128.819C1280,103.941,1325.714,65.533,1371.429,65.009C1417.143,64.485,1462.857,101.845,1508.571,102.732C1554.286,103.619,1600,68.032,1645.714,50.141C1691.429,32.249,1737.143,32.052,1782.857,34.246C1828.571,36.441,1874.286,41.027,1897.143,43.32L1920,45.613L1920,540L1897.143,540C1874.286,540,1828.571,540,1782.857,540C1737.143,540,1691.429,540,1645.714,540C1600,540,1554.286,540,1508.571,540C1462.857,540,1417.143,540,1371.429,540C1325.714,540,1280,540,1234.286,540C1188.571,540,1142.857,540,1097.143,540C1051.429,540,1005.714,540,960,540C914.286,540,868.571,540,822.857,540C777.143,540,731.429,540,685.714,540C640,540,594.286,540,548.571,540C502.857,540,457.143,540,411.429,540C365.714,540,320,540,274.286,540C228.571,540,182.857,540,137.143,540C91.429,540,45.714,540,22.857,540L0,540Z"></path></g><g transform="translate(0, 720)"><path fill="rgb(32, 144, 254)" fill-opacity="1" d="M0,53.336L22.857,64.573C45.714,75.809,91.429,98.282,137.143,109.737C182.857,121.192,228.571,121.63,274.286,103.37C320,85.11,365.714,48.153,411.429,49.055C457.143,49.956,502.857,88.717,548.571,93.503C594.286,98.289,640,69.1,685.714,60.949C731.429,52.797,777.143,65.682,822.857,61.454C868.571,57.225,914.286,35.882,960,33.263C1005.714,30.644,1051.429,46.749,1097.143,45.722C1142.857,44.696,1188.571,26.539,1234.286,35.068C1280,43.597,1325.714,78.813,1371.429,105.447C1417.143,132.08,1462.857,150.132,1508.571,154.109C1554.286,158.086,1600,147.988,1645.714,124.755C1691.429,101.521,1737.143,65.153,1782.857,69.94C1828.571,74.727,1874.286,120.67,1897.143,143.641L1920,166.612L1920,360L1897.143,360C1874.286,360,1828.571,360,1782.857,360C1737.143,360,1691.429,360,1645.714,360C1600,360,1554.286,360,1508.571,360C1462.857,360,1417.143,360,1371.429,360C1325.714,360,1280,360,1234.286,360C1188.571,360,1142.857,360,1097.143,360C1051.429,360,1005.714,360,960,360C914.286,360,868.571,360,822.857,360C777.143,360,731.429,360,685.714,360C640,360,594.286,360,548.571,360C502.857,360,457.143,360,411.429,360C365.714,360,320,360,274.286,360C228.571,360,182.857,360,137.143,360C91.429,360,45.714,360,22.857,360L0,360Z"></path></g><g transform="translate(0, 900)"><path fill="rgb(0, 127, 254)" fill-opacity="1" d="M0,36.042L22.857,53.462C45.714,70.881,91.429,105.72,137.143,115.888C182.857,126.056,228.571,111.553,274.286,93.407C320,75.26,365.714,53.47,411.429,44.827C457.143,36.184,502.857,40.688,548.571,42.635C594.286,44.583,640,43.973,685.714,40.069C731.429,36.166,777.143,28.969,822.857,32.627C868.571,36.286,914.286,50.8,960,71.709C1005.714,92.619,1051.429,119.925,1097.143,123.351C1142.857,126.777,1188.571,106.324,1234.286,82.588C1280,58.852,1325.714,31.834,1371.429,22.521C1417.143,13.207,1462.857,21.598,1508.571,43.084C1554.286,64.569,1600,99.149,1645.714,95.252C1691.429,91.356,1737.143,48.982,1782.857,44.623C1828.571,40.263,1874.286,73.918,1897.143,90.745L1920,107.572L1920,180L1897.143,180C1874.286,180,1828.571,180,1782.857,180C1737.143,180,1691.429,180,1645.714,180C1600,180,1554.286,180,1508.571,180C1462.857,180,1417.143,180,1371.429,180C1325.714,180,1280,180,1234.286,180C1188.571,180,1142.857,180,1097.143,180C1051.429,180,1005.714,180,960,180C914.286,180,868.571,180,822.857,180C777.143,180,731.429,180,685.714,180C640,180,594.286,180,548.571,180C502.857,180,457.143,180,411.429,180C365.714,180,320,180,274.286,180C228.571,180,182.857,180,137.143,180C91.429,180,45.714,180,22.857,180L0,180Z"></path></g></g></svg>