<svg xmlns="http://www.w3.org/2000/svg" viewBox="0 0 1920 1080"><g transform="
          rotate(0 960 540) 
          translate(-0 -0)
          scale(1)
        "><rect width="1920" height="1080" fill="rgb(240, 255, 254)"></rect><g transform="translate(0, 0)"><path fill="rgb(206, 237, 254)" fill-opacity="1" d="M0,151.261L26.667,150.032C53.333,148.803,106.667,146.345,160,145.963C213.333,145.582,266.667,147.279,320,147.469C373.333,147.66,426.667,146.345,480,129.936C533.333,113.526,586.667,82.021,640,79.361C693.333,76.7,746.667,102.883,800,94.858C853.333,86.834,906.667,44.601,960,42.206C1013.333,39.811,1066.667,77.253,1120,86.58C1173.333,95.906,1226.667,77.116,1280,59.724C1333.333,42.332,1386.667,26.338,1440,34.594C1493.333,42.85,1546.667,75.355,1600,81.216C1653.333,87.078,1706.667,66.294,1760,55.892C1813.333,45.489,1866.667,45.467,1893.333,45.456L1920,45.445L1920,1080L1893.333,1080C1866.667,1080,1813.333,1080,1760,1080C1706.667,1080,1653.333,1080,1600,1080C1546.667,1080,1493.333,1080,1440,1080C1386.667,1080,1333.333,1080,1280,1080C1226.667,1080,1173.333,1080,1120,1080C1066.667,1080,1013.333,1080,960,1080C906.667,1080,853.333,1080,800,1080C746.667,1080,693.333,1080,640,1080C586.667,1080,533.333,1080,480,1080C426.667,1080,373.333,1080,320,1080C266.667,1080,213.333,1080,160,1080C106.667,1080,53.333,1080,26.667,1080L0,1080Z"></path></g><g transform="translate(0, 154.28571428571428)"><path fill="rgb(171, 218, 254)" fill-opacity="1" d="M0,135.984L26.667,137.103C53.333,138.222,106.667,140.459,160,122.004C213.333,103.548,266.667,64.398,320,48.267C373.333,32.136,426.667,39.022,480,54.117C533.333,69.211,586.667,92.514,640,108.999C693.333,125.483,746.667,135.15,800,128.792C853.333,122.434,906.667,100.051,960,77.277C1013.333,54.503,1066.667,31.338,1120,18.585C1173.333,5.831,1226.667,3.489,1280,17.605C1333.333,31.722,1386.667,62.296,1440,71.907C1493.333,81.517,1546.667,70.163,1600,58.362C1653.333,46.561,1706.667,34.312,1760,30.966C1813.333,27.62,1866.667,33.177,1893.333,35.955L1920,38.733L1920,925.714L1893.333,925.714C1866.667,925.714,1813.333,925.714,1760,925.714C1706.667,925.714,1653.333,925.714,1600,925.714C1546.667,925.714,1493.333,925.714,1440,925.714C1386.667,925.714,1333.333,925.714,1280,925.714C1226.667,925.714,1173.333,925.714,1120,925.714C1066.667,925.714,1013.333,925.714,960,925.714C906.667,925.714,853.333,925.714,800,925.714C746.667,925.714,693.333,925.714,640,925.714C586.667,925.714,533.333,925.714,480,925.714C426.667,925.714,373.333,925.714,320,925.714C266.667,925.714,213.333,925.714,160,925.714C106.667,925.714,53.333,925.714,26.667,925.714L0,925.714Z"></path></g><g transform="translate(0, 308.57142857142856)"><path fill="rgb(137, 200, 254)" fill-opacity="1" d="M0,45.711L26.667,58.187C53.333,70.663,106.667,95.615,160,112.607C213.333,129.6,266.667,138.632,320,144.051C373.333,149.469,426.667,151.272,480,140.839C533.333,130.405,586.667,107.735,640,89.698C693.333,71.661,746.667,58.257,800,46.559C853.333,34.86,906.667,24.867,960,39.631C1013.333,54.396,1066.667,93.919,1120,116.643C1173.333,139.367,1226.667,145.291,1280,148.463C1333.333,151.636,1386.667,152.056,1440,143.263C1493.333,134.471,1546.667,116.465,1600,105.222C1653.333,93.978,1706.667,89.496,1760,80.339C1813.333,71.182,1866.667,57.35,1893.333,50.434L1920,43.518L1920,771.429L1893.333,771.429C1866.667,771.429,1813.333,771.429,1760,771.429C1706.667,771.429,1653.333,771.429,1600,771.429C1546.667,771.429,1493.333,771.429,1440,771.429C1386.667,771.429,1333.333,771.429,1280,771.429C1226.667,771.429,1173.333,771.429,1120,771.429C1066.667,771.429,1013.333,771.429,960,771.429C906.667,771.429,853.333,771.429,800,771.429C746.667,771.429,693.333,771.429,640,771.429C586.667,771.429,533.333,771.429,480,771.429C426.667,771.429,373.333,771.429,320,771.429C266.667,771.429,213.333,771.429,160,771.429C106.667,771.429,53.333,771.429,26.667,771.429L0,771.429Z"></path></g><g transform="translate(0, 462.85714285714283)"><path fill="rgb(103, 182, 254)" fill-opacity="1" d="M0,150.569L26.667,147.608C53.333,144.647,106.667,138.725,160,137.041C213.333,135.358,266.667,137.913,320,134.949C373.333,131.984,426.667,123.501,480,102.338C533.333,81.175,586.667,47.332,640,51.385C693.333,55.438,746.667,97.386,800,106.916C853.333,116.447,906.667,93.56,960,74.098C1013.333,54.637,1066.667,38.601,1120,38.27C1173.333,37.94,1226.667,53.315,1280,74.74C1333.333,96.165,1386.667,123.64,1440,125.288C1493.333,126.936,1546.667,102.757,1600,88.508C1653.333,74.26,1706.667,69.943,1760,58.47C1813.333,46.997,1866.667,28.369,1893.333,19.054L1920,9.74L1920,617.143L1893.333,617.143C1866.667,617.143,1813.333,617.143,1760,617.143C1706.667,617.143,1653.333,617.143,1600,617.143C1546.667,617.143,1493.333,617.143,1440,617.143C1386.667,617.143,1333.333,617.143,1280,617.143C1226.667,617.143,1173.333,617.143,1120,617.143C1066.667,617.143,1013.333,617.143,960,617.143C906.667,617.143,853.333,617.143,800,617.143C746.667,617.143,693.333,617.143,640,617.143C586.667,617.143,533.333,617.143,480,617.143C426.667,617.143,373.333,617.143,320,617.143C266.667,617.143,213.333,617.143,160,617.143C106.667,617.143,53.333,617.143,26.667,617.143L0,617.143Z"></path></g><g transform="translate(0, 617.1428571428571)"><path fill="rgb(69, 164, 254)" fill-opacity="1" d="M0,8.416L26.667,17.024C53.333,25.632,106.667,42.848,160,66.182C213.333,89.515,266.667,118.965,320,128.95C373.333,138.936,426.667,129.458,480,108.236C533.333,87.013,586.667,54.047,640,58.103C693.333,62.159,746.667,103.238,800,109.655C853.333,116.072,906.667,87.827,960,81.207C1013.333,74.587,1066.667,89.593,1120,90.518C1173.333,91.442,1226.667,78.285,1280,79.831C1333.333,81.376,1386.667,97.624,1440,105.527C1493.333,113.431,1546.667,112.99,1600,105.409C1653.333,97.829,1706.667,83.108,1760,78.861C1813.333,74.613,1866.667,80.838,1893.333,83.95L1920,87.063L1920,462.857L1893.333,462.857C1866.667,462.857,1813.333,462.857,1760,462.857C1706.667,462.857,1653.333,462.857,1600,462.857C1546.667,462.857,1493.333,462.857,1440,462.857C1386.667,462.857,1333.333,462.857,1280,462.857C1226.667,462.857,1173.333,462.857,1120,462.857C1066.667,462.857,1013.333,462.857,960,462.857C906.667,462.857,853.333,462.857,800,462.857C746.667,462.857,693.333,462.857,640,462.857C586.667,462.857,533.333,462.857,480,462.857C426.667,462.857,373.333,462.857,320,462.857C266.667,462.857,213.333,462.857,160,462.857C106.667,462.857,53.333,462.857,26.667,462.857L0,462.857Z"></path></g><g transform="translate(0, 771.4285714285714)"><path fill="rgb(34, 145, 254)" fill-opacity="1" d="M0,86.645L26.667,85.201C53.333,83.756,106.667,80.868,160,78.333C213.333,75.798,266.667,73.617,320,63.24C373.333,52.862,426.667,34.288,480,23.196C533.333,12.105,586.667,8.496,640,13.649C693.333,18.803,746.667,32.718,800,41.466C853.333,50.214,906.667,53.795,960,54.606C1013.333,55.418,1066.667,53.46,1120,58.033C1173.333,62.607,1226.667,73.712,1280,81.713C1333.333,89.715,1386.667,94.614,1440,102.283C1493.333,109.953,1546.667,120.392,1600,118.61C1653.333,116.827,1706.667,102.821,1760,88.339C1813.333,73.857,1866.667,58.898,1893.333,51.419L1920,43.939L1920,308.571L1893.333,308.571C1866.667,308.571,1813.333,308.571,1760,308.571C1706.667,308.571,1653.333,308.571,1600,308.571C1546.667,308.571,1493.333,308.571,1440,308.571C1386.667,308.571,1333.333,308.571,1280,308.571C1226.667,308.571,1173.333,308.571,1120,308.571C1066.667,308.571,1013.333,308.571,960,308.571C906.667,308.571,853.333,308.571,800,308.571C746.667,308.571,693.333,308.571,640,308.571C586.667,308.571,533.333,308.571,480,308.571C426.667,308.571,373.333,308.571,320,308.571C266.667,308.571,213.333,308.571,160,308.571C106.667,308.571,53.333,308.571,26.667,308.571L0,308.571Z"></path></g><g transform="translate(0, 925.7142857142857)"><path fill="rgb(0, 127, 254)" fill-opacity="1" d="M0,91.054L26.667,80.707C53.333,70.36,106.667,49.666,160,55.282C213.333,60.898,266.667,92.825,320,99.092C373.333,105.359,426.667,85.966,480,90.287C533.333,94.607,586.667,122.641,640,134.456C693.333,146.271,746.667,141.867,800,129.505C853.333,117.144,906.667,96.824,960,95.577C1013.333,94.331,1066.667,112.157,1120,110.693C1173.333,109.229,1226.667,88.473,1280,79.939C1333.333,71.404,1386.667,75.09,1440,67.017C1493.333,58.943,1546.667,39.111,1600,42.338C1653.333,45.564,1706.667,71.851,1760,68.672C1813.333,65.493,1866.667,32.849,1893.333,16.528L1920,0.206L1920,154.286L1893.333,154.286C1866.667,154.286,1813.333,154.286,1760,154.286C1706.667,154.286,1653.333,154.286,1600,154.286C1546.667,154.286,1493.333,154.286,1440,154.286C1386.667,154.286,1333.333,154.286,1280,154.286C1226.667,154.286,1173.333,154.286,1120,154.286C1066.667,154.286,1013.333,154.286,960,154.286C906.667,154.286,853.333,154.286,800,154.286C746.667,154.286,693.333,154.286,640,154.286C586.667,154.286,533.333,154.286,480,154.286C426.667,154.286,373.333,154.286,320,154.286C266.667,154.286,213.333,154.286,160,154.286C106.667,154.286,53.333,154.286,26.667,154.286L0,154.286Z"></path></g></g></svg>