<svg xmlns="http://www.w3.org/2000/svg" viewBox="0 0 1920 1080"><g transform="
          rotate(180 960 540) 
          translate(-2.2737367544323206e-13 -1.1368683772161603e-13)
          scale(1.0000000000000002)
        "><rect width="1920" height="1080" fill="rgb(240, 255, 254)"></rect><g transform="translate(0, 0)"><path fill="rgb(200, 234, 254)" fill-opacity="1" d="M0,22.295L24.615,41.396C49.231,60.498,98.462,98.701,147.692,110.384C196.923,122.067,246.154,107.229,295.385,109.477C344.615,111.725,393.846,131.057,443.077,123.441C492.308,115.824,541.538,81.258,590.769,79.331C640,77.405,689.231,108.118,738.462,106.383C787.692,104.647,836.923,70.463,886.154,49.845C935.385,29.228,984.615,22.178,1033.846,44.81C1083.077,67.442,1132.308,119.757,1181.538,121.979C1230.769,124.202,1280,76.331,1329.231,64.697C1378.462,53.063,1427.692,77.664,1476.923,80.326C1526.154,82.988,1575.385,63.71,1624.615,72.025C1673.846,80.341,1723.077,116.251,1772.308,117.457C1821.538,118.664,1870.769,85.168,1895.385,68.419L1920,51.671L1920,1080L1895.385,1080C1870.769,1080,1821.538,1080,1772.308,1080C1723.077,1080,1673.846,1080,1624.615,1080C1575.385,1080,1526.154,1080,1476.923,1080C1427.692,1080,1378.462,1080,1329.231,1080C1280,1080,1230.769,1080,1181.538,1080C1132.308,1080,1083.077,1080,1033.846,1080C984.615,1080,935.385,1080,886.154,1080C836.923,1080,787.692,1080,738.462,1080C689.231,1080,640,1080,590.769,1080C541.538,1080,492.308,1080,443.077,1080C393.846,1080,344.615,1080,295.385,1080C246.154,1080,196.923,1080,147.692,1080C98.462,1080,49.231,1080,24.615,1080L0,1080Z"></path></g><g transform="translate(0, 180)"><path fill="rgb(160, 212, 254)" fill-opacity="1" d="M0,57.826L24.615,58.722C49.231,59.618,98.462,61.41,147.692,79.723C196.923,98.037,246.154,132.873,295.385,140.973C344.615,149.074,393.846,130.44,443.077,111.364C492.308,92.288,541.538,72.772,590.769,79.721C640,86.67,689.231,120.085,738.462,139.263C787.692,158.442,836.923,163.384,886.154,147.429C935.385,131.474,984.615,94.621,1033.846,71.888C1083.077,49.156,1132.308,40.544,1181.538,50.263C1230.769,59.981,1280,88.029,1329.231,92.842C1378.462,97.654,1427.692,79.23,1476.923,83.102C1526.154,86.974,1575.385,113.142,1624.615,115.742C1673.846,118.342,1723.077,97.374,1772.308,92.22C1821.538,87.065,1870.769,97.725,1895.385,103.055L1920,108.385L1920,900L1895.385,900C1870.769,900,1821.538,900,1772.308,900C1723.077,900,1673.846,900,1624.615,900C1575.385,900,1526.154,900,1476.923,900C1427.692,900,1378.462,900,1329.231,900C1280,900,1230.769,900,1181.538,900C1132.308,900,1083.077,900,1033.846,900C984.615,900,935.385,900,886.154,900C836.923,900,787.692,900,738.462,900C689.231,900,640,900,590.769,900C541.538,900,492.308,900,443.077,900C393.846,900,344.615,900,295.385,900C246.154,900,196.923,900,147.692,900C98.462,900,49.231,900,24.615,900L0,900Z"></path></g><g transform="translate(0, 360)"><path fill="rgb(120, 191, 254)" fill-opacity="1" d="M0,27.303L24.615,26.865C49.231,26.428,98.462,25.553,147.692,41.47C196.923,57.388,246.154,90.099,295.385,112.016C344.615,133.934,393.846,145.058,443.077,128.452C492.308,111.847,541.538,67.512,590.769,49.218C640,30.924,689.231,38.672,738.462,54.211C787.692,69.75,836.923,93.081,886.154,88.847C935.385,84.612,984.615,52.812,1033.846,38.909C1083.077,25.006,1132.308,29,1181.538,35.678C1230.769,42.356,1280,51.718,1329.231,55.798C1378.462,59.879,1427.692,58.677,1476.923,56.562C1526.154,54.446,1575.385,51.417,1624.615,64.888C1673.846,78.359,1723.077,108.33,1772.308,122.218C1821.538,136.106,1870.769,133.909,1895.385,132.811L1920,131.713L1920,720L1895.385,720C1870.769,720,1821.538,720,1772.308,720C1723.077,720,1673.846,720,1624.615,720C1575.385,720,1526.154,720,1476.923,720C1427.692,720,1378.462,720,1329.231,720C1280,720,1230.769,720,1181.538,720C1132.308,720,1083.077,720,1033.846,720C984.615,720,935.385,720,886.154,720C836.923,720,787.692,720,738.462,720C689.231,720,640,720,590.769,720C541.538,720,492.308,720,443.077,720C393.846,720,344.615,720,295.385,720C246.154,720,196.923,720,147.692,720C98.462,720,49.231,720,24.615,720L0,720Z"></path></g><g transform="translate(0, 540)"><path fill="rgb(80, 170, 254)" fill-opacity="1" d="M0,159.386L24.615,148.793C49.231,138.2,98.462,117.014,147.692,92.601C196.923,68.187,246.154,40.546,295.385,27.59C344.615,14.633,393.846,16.362,443.077,24.272C492.308,32.182,541.538,46.272,590.769,65.952C640,85.631,689.231,110.9,738.462,125.669C787.692,140.438,836.923,144.707,886.154,139.72C935.385,134.733,984.615,120.49,1033.846,100.362C1083.077,80.233,1132.308,54.218,1181.538,44.839C1230.769,35.46,1280,42.716,1329.231,54.088C1378.462,65.461,1427.692,80.948,1476.923,102.018C1526.154,123.089,1575.385,149.742,1624.615,157.394C1673.846,165.046,1723.077,153.697,1772.308,128.819C1821.538,103.941,1870.769,65.533,1895.385,46.329L1920,27.125L1920,540L1895.385,540C1870.769,540,1821.538,540,1772.308,540C1723.077,540,1673.846,540,1624.615,540C1575.385,540,1526.154,540,1476.923,540C1427.692,540,1378.462,540,1329.231,540C1280,540,1230.769,540,1181.538,540C1132.308,540,1083.077,540,1033.846,540C984.615,540,935.385,540,886.154,540C836.923,540,787.692,540,738.462,540C689.231,540,640,540,590.769,540C541.538,540,492.308,540,443.077,540C393.846,540,344.615,540,295.385,540C246.154,540,196.923,540,147.692,540C98.462,540,49.231,540,24.615,540L0,540Z"></path></g><g transform="translate(0, 720)"><path fill="rgb(40, 148, 254)" fill-opacity="1" d="M0,139.205L24.615,121.412C49.231,103.619,98.462,68.032,147.692,50.141C196.923,32.249,246.154,32.052,295.385,34.246C344.615,36.441,393.846,41.027,443.077,44.607C492.308,48.188,541.538,50.762,590.769,63.286C640,75.809,689.231,98.282,738.462,109.737C787.692,121.192,836.923,121.63,886.154,103.37C935.385,85.11,984.615,48.153,1033.846,49.055C1083.077,49.956,1132.308,88.717,1181.538,93.503C1230.769,98.289,1280,69.1,1329.231,60.949C1378.462,52.797,1427.692,65.682,1476.923,61.454C1526.154,57.225,1575.385,35.882,1624.615,33.263C1673.846,30.644,1723.077,46.749,1772.308,45.722C1821.538,44.696,1870.769,26.539,1895.385,17.46L1920,8.381L1920,360L1895.385,360C1870.769,360,1821.538,360,1772.308,360C1723.077,360,1673.846,360,1624.615,360C1575.385,360,1526.154,360,1476.923,360C1427.692,360,1378.462,360,1329.231,360C1280,360,1230.769,360,1181.538,360C1132.308,360,1083.077,360,1033.846,360C984.615,360,935.385,360,886.154,360C836.923,360,787.692,360,738.462,360C689.231,360,640,360,590.769,360C541.538,360,492.308,360,443.077,360C393.846,360,344.615,360,295.385,360C246.154,360,196.923,360,147.692,360C98.462,360,49.231,360,24.615,360L0,360Z"></path></g><g transform="translate(0, 900)"><path fill="rgb(0, 127, 254)" fill-opacity="1" d="M0,114.028L24.615,123.054C49.231,132.08,98.462,150.132,147.692,154.109C196.923,158.086,246.154,147.988,295.385,124.755C344.615,101.521,393.846,65.153,443.077,69.94C492.308,74.727,541.538,120.67,590.769,121.879C640,123.089,689.231,79.566,738.462,75.223C787.692,70.881,836.923,105.72,886.154,115.888C935.385,126.056,984.615,111.553,1033.846,93.407C1083.077,75.26,1132.308,53.47,1181.538,44.827C1230.769,36.184,1280,40.688,1329.231,42.635C1378.462,44.583,1427.692,43.973,1476.923,40.069C1526.154,36.166,1575.385,28.969,1624.615,32.627C1673.846,36.286,1723.077,50.8,1772.308,71.709C1821.538,92.619,1870.769,119.925,1895.385,133.578L1920,147.231L1920,180L1895.385,180C1870.769,180,1821.538,180,1772.308,180C1723.077,180,1673.846,180,1624.615,180C1575.385,180,1526.154,180,1476.923,180C1427.692,180,1378.462,180,1329.231,180C1280,180,1230.769,180,1181.538,180C1132.308,180,1083.077,180,1033.846,180C984.615,180,935.385,180,886.154,180C836.923,180,787.692,180,738.462,180C689.231,180,640,180,590.769,180C541.538,180,492.308,180,443.077,180C393.846,180,344.615,180,295.385,180C246.154,180,196.923,180,147.692,180C98.462,180,49.231,180,24.615,180L0,180Z"></path></g></g></svg>